<svg width="20" height="20" viewBox="0 0 20 20" fill="none" xmlns="http://www.w3.org/2000/svg">
<path d="M19.8639 16.5759L13.288 10L19.8639 3.4241C20.0454 3.24252 20.0454 2.94818 19.8639 2.7666L17.2334 0.136143C17.0518 -0.045381 16.7575 -0.045381 16.5759 0.136143L10 6.71205L3.4241 0.136143C3.24252 -0.045381 2.94818 -0.045381 2.7666 0.136143L0.136143 2.7666C-0.045381 2.94818 -0.045381 3.24252 0.136143 3.4241L6.71205 10L0.136143 16.5759C-0.045381 16.7575 -0.045381 17.0518 0.136143 17.2334L2.7666 19.8639C2.94818 20.0454 3.24252 20.0454 3.4241 19.8639L10 13.288L16.5759 19.8639C16.7575 20.0454 17.0518 20.0454 17.2334 19.8639L19.8639 17.2334C20.0454 17.0518 20.0454 16.7575 19.8639 16.5759Z" fill="#363F39"/>
</svg>
