<svg width="12" height="11" viewBox="0 0 12 11" fill="none" xmlns="http://www.w3.org/2000/svg">
<path d="M11.3335 9.0494L7.79804 5.5139L11.3335 1.9784C11.4311 1.88077 11.4311 1.72252 11.3335 1.6249L9.91929 0.210648C9.82166 0.113052 9.66341 0.113052 9.56579 0.210648L6.03029 3.74615L2.49479 0.210648C2.39716 0.113052 2.23891 0.113052 2.14129 0.210648L0.727036 1.6249C0.62944 1.72252 0.62944 1.88077 0.727036 1.9784L4.26254 5.5139L0.727036 9.0494C0.62944 9.14702 0.62944 9.30527 0.727036 9.4029L2.14129 10.8171C2.23891 10.9147 2.39716 10.9147 2.49479 10.8171L6.03029 7.28165L9.56579 10.8171C9.66341 10.9147 9.82166 10.9147 9.91929 10.8171L11.3335 9.4029C11.4311 9.30527 11.4311 9.14702 11.3335 9.0494Z" fill="#39414D"/>
</svg>
